# xmcd
#
# Track frame offsets: 
#        150
#        15189
#        16504
#        34261
#        38893
#        50955
#        67827
#        71838
#        86241
#        101116
#        103839
#        121138
#        137903
#        139680
#        156567
#        169239
#        173609
#        188433
#        197940
#        213016
#        227283
#        244217
#        261497
#        262729
#        274997
#
# Disc length: 3931 seconds
#
# Revision: 3
# Processed by: cddbd v1.5.2PL0 Copyright (c) Steve Scherf et al.
# Submitted via: ExactAudioCopy v0.95b4
#
DISCID=620f5919
DTITLE=Handsome Family - Live at Schuba's Tavern
DYEAR=2000
DGENRE=Alt. Country
TTITLE0=Amelia Earhart vs. the Dancing Bear
TTITLE1='the Good toothpicks'
TTITLE2=So Much Wine
TTITLE3='the Czar Bar'
TTITLE4=Tinfoil
TTITLE5=A Beautiful Thing
TTITLE6='vienna sausage hotline'
TTITLE7=The Giant of Illinois
TTITLE8=My Sister's Tiny Hands
TTITLE9='names for all his shirts'
TTITLE10=Cathedrals
TTITLE11=Weigthless Again
TTITLE12='bony bread'
TTITLE13=Winnebago Skeletons
TTITLE14=Drunk by Noon
TTITLE15='magic balls, introduction'
TTITLE16=The Sad Milkman
TTITLE17='magic balls, conclusion'
TTITLE18=I Know You Are There
TTITLE19=Down in the Ground
TTITLE20=Arlene
TTITLE21=Moving Furniture Around
TTITLE22='freebird'
TTITLE23=My Ghost
TTITLE24=The Woman Downstairs
EXTD=
EXTT0=
EXTT1=
EXTT2=
EXTT3=
EXTT4=
EXTT5=
EXTT6=
EXTT7=
EXTT8=
EXTT9=
EXTT10=
EXTT11=
EXTT12=
EXTT13=
EXTT14=
EXTT15=
EXTT16=
EXTT17=
EXTT18=
EXTT19=
EXTT20=
EXTT21=
EXTT22=
EXTT23=
EXTT24=
PLAYORDER=
